PathFileType  4	(X/Y/Z) C:\Users\antoi\Documents\MyRepositories\mobilecap\ResultsAnalysis
DataRate	CameraRate	NumFrames	NumMarkers	Units	OrigDataRate	OrigDataStartFrame	OrigNumFrames
100.0	100.0	5	51	mm	100.0	65	128
Frame#	Time	r_knee			r_shank_antsup			r_ankle			r_calc			r_5meta			r_toe			L_knee			L_shank_antsup			L_ankle			L_calc			L_5meta			L_toe			r_sh2			r_sh3			r_sh4			L_sh2			L_sh3			r_thigh1			r_thigh2			r_thigh3			r_thigh4			r_thigh5			L_thigh1			L_thigh2			L_thigh3			L_thigh4			r.ASIS			r.PSIS			L.ASIS			L.PSIS			C7			R_Shoulder			L_Shoulder			R_Sternum			L_Sternum			R_humerus			R_elbow_med			R_elbow_lat			R_forearm			R_wrist_radius			R_wrist_ulna			L_humerus			L_elbow_med			L_elbow_lat			L_forearm			L_wrist_radius			L_wrist_ulna			R_HJC			L_HJC			R_HJC_reg			L_HJC_reg			
		X1	Y1	Z1	X2	Y2	Z2	X3	Y3	Z3	X4	Y4	Z4	X5	Y5	Z5	X6	Y6	Z6	X7	Y7	Z7	X8	Y8	Z8	X9	Y9	Z9	X10	Y10	Z10	X11	Y11	Z11	X12	Y12	Z12	X13	Y13	Z13	X14	Y14	Z14	X15	Y15	Z15	X16	Y16	Z16	X17	Y17	Z17	X18	Y18	Z18	X19	Y19	Z19	X20	Y20	Z20	X21	Y21	Z21	X22	Y22	Z22	X23	Y23	Z23	X24	Y24	Z24	X25	Y25	Z25	X26	Y26	Z26	X27	Y27	Z27	X28	Y28	Z28	X29	Y29	Z29	X30	Y30	Z30	X31	Y31	Z31	X32	Y32	Z32	X33	Y33	Z33	X34	Y34	Z34	X35	Y35	Z35	X36	Y36	Z36	X37	Y37	Z37	X38	Y38	Z38	X39	Y39	Z39	X40	Y40	Z40	X41	Y41	Z41	X42	Y42	Z42	X43	Y43	Z43	X44	Y44	Z44	X45	Y45	Z45	X46	Y46	Z46	X47	Y47	Z47	X48	Y48	Z48	X49	Y49	Z49	X50	Y50	Z50	X51	Y51	Z51	

65	0.64000000	800.80901	451.68958	-64.47309	782.97966	375.03626	-83.07593	465.13459	260.76173	-121.43750	412.90452	303.79976	-169.40525	454.37098	142.08780	-87.30003	510.19574	110.84180	-131.53262	874.21324	488.40790	-402.68404	907.99638	389.73149	-404.08842	804.85983	96.41731	-373.84303	733.61185	63.89094	-330.08290	908.07789	42.24899	-410.69225	948.12813	64.61671	-353.08994	673.04210	336.12865	-72.57624	748.13407	447.83363	-59.33881	645.46295	404.54850	-72.75806	820.14192	409.64060	-413.97380	803.70114	288.61909	-414.93210	800.86257	768.38358	-64.19964	823.33129	656.92365	-57.48539	766.52847	624.01808	-38.08369	689.17846	745.85381	-58.62902	713.79629	631.61770	-61.47676	805.68633	750.49289	-447.53412	865.79003	626.71413	-427.57562	707.10625	705.84499	-412.81503	771.05981	579.58959	-402.48787	798.21786	927.39819	-113.09947	607.07732	956.50051	-191.82194	807.46501	929.20148	-365.50367	600.08395	968.49677	-292.72171	610.70205	1379.30936	-327.17568	725.38709	1387.07060	-154.58226	676.44835	1287.23883	-493.24885	751.16664	1340.99080	-307.65274	753.60339	1329.35654	-350.33269	749.24651	1285.08369	-53.47035	705.52977	1071.38794	2.77925	733.26502	1116.62970	57.02663	862.51056	1056.21711	33.56917	971.98390	975.19411	15.97358	963.31339	962.93211	48.41559	693.75876	1165.48554	-532.52122	657.85153	939.06733	-448.83393	670.89801	953.66497	-525.48604	753.72517	871.17005	-524.03375	821.71582	727.99212	-520.76792	791.84617	718.09475	-537.61833	725.97923	844.01186	-141.54555	728.75886	852.35669	-347.82901	741.99155	837.59180	-154.36152	730.54528	857.22732	-319.51643	
66	0.65000000	823.88712	455.28289	-65.44722	807.81470	378.37218	-83.86698	490.61693	262.79845	-121.29548	436.71641	305.11499	-168.28142	482.60304	144.02293	-87.48795	538.07510	113.97258	-132.90712	881.24046	487.05423	-403.01964	913.45799	387.80806	-404.36128	805.17069	96.58556	-373.66679	733.84035	64.01503	-329.87262	908.11762	42.17932	-410.73166	948.31191	64.33157	-353.06120	697.86805	339.43048	-73.02627	772.97355	451.23825	-60.66393	670.30452	407.81548	-73.58339	826.11399	409.08858	-414.38107	807.71208	288.45354	-414.94058	813.04998	770.83515	-64.00576	838.85975	660.02520	-57.49661	782.73764	625.69412	-39.41083	701.85691	744.72568	-61.22841	730.12555	631.29892	-64.30287	815.49954	749.97042	-447.96581	874.23171	625.58368	-428.19922	716.36582	706.18549	-413.13847	778.96970	579.39556	-402.96484	808.61810	927.58761	-113.23501	617.66022	956.70635	-193.00694	818.95154	929.54245	-365.83627	610.98062	968.45791	-293.99396	622.65786	1379.60111	-329.21981	736.51323	1387.05411	-155.72073	689.95025	1286.03407	-494.39865	763.06152	1340.18364	-308.47621	765.70577	1328.32893	-351.15031	758.18379	1284.89525	-54.01257	712.69936	1071.38396	1.40325	739.76897	1116.44529	56.08184	868.83388	1054.58785	35.12719	977.49977	972.30843	19.76712	968.59261	960.39697	52.38151	709.16733	1164.32089	-532.72236	675.68029	937.54477	-449.15339	689.99202	952.31637	-525.62470	773.26221	870.58791	-523.01182	841.75572	727.63165	-519.23219	812.49335	717.68435	-536.77662	736.47216	844.20245	-142.18297	740.18897	852.56978	-348.44659	752.54659	838.05541	-154.47845	741.60729	857.29963	-319.86991	
67	0.66000000	846.48946	459.44306	-66.65986	832.32917	382.14901	-84.90313	516.44052	263.11507	-120.91376	460.65282	304.64891	-166.61153	511.58944	143.91614	-88.25169	566.94638	115.69318	-134.92646	887.52013	485.86099	-402.84339	918.26461	386.19737	-404.13548	805.43493	96.78650	-373.43312	734.03356	64.14147	-329.68595	908.15150	42.14141	-410.72286	948.46162	64.08746	-352.97783	722.64947	342.43828	-73.42870	797.20157	454.73298	-61.91754	694.68602	410.61631	-74.21791	831.36542	408.69007	-414.24925	811.23632	288.42742	-414.60174	825.16204	773.66334	-63.91596	854.07480	663.62390	-57.72710	798.73594	627.84481	-40.87473	714.52340	744.11620	-63.82906	746.32609	631.61995	-67.08222	825.02384	749.60421	-448.04472	882.09262	624.53234	-428.29172	725.25902	706.89838	-412.86588	786.29096	579.53881	-402.69749	818.89306	928.78321	-113.31885	628.25768	957.49195	-194.40926	830.51959	930.28230	-366.00226	621.90501	968.87442	-295.46537	634.47106	1380.33325	-331.13345	747.41084	1387.47764	-156.70984	703.22856	1285.50772	-495.46701	774.83201	1339.87780	-309.13501	777.67938	1327.82143	-351.81640	766.93304	1285.07075	-54.51679	719.80453	1071.66002	-0.30453	746.08349	1116.45441	54.90730	874.96148	1053.13009	36.55933	982.66993	969.50101	23.43237	973.57871	957.97539	56.23448	724.27484	1163.86217	-532.79944	693.44832	936.79216	-449.20450	708.87002	951.73180	-525.52282	792.67252	870.85356	-521.77329	861.72856	728.16988	-517.40153	833.15891	718.16981	-535.72661	746.94618	845.25351	-142.61590	751.79929	853.16961	-348.86746	763.23260	839.23538	-154.43756	752.82326	857.88381	-320.02058	
68	0.67000000	868.57361	464.05230	-68.08422	856.43824	386.28924	-86.24575	542.58493	261.75598	-120.40191	484.72793	302.37206	-164.59787	541.29082	141.98444	-89.48085	596.72441	116.10734	-137.41754	893.09925	484.89860	-402.23411	922.47237	384.92572	-403.47429	805.68644	97.01003	-373.15479	734.18347	64.27378	-329.54090	908.18245	42.12942	-410.68271	948.56086	63.87945	-352.86196	747.35819	345.04589	-73.87543	820.69789	458.24739	-63.11823	718.54590	412.83886	-74.65958	835.96137	408.48446	-413.70982	814.32248	288.57547	-414.01794	837.26195	776.86867	-63.93628	869.06457	667.70383	-58.14563	814.61492	630.44249	-42.36685	727.25961	744.07038	-66.19670	762.48087	632.55982	-69.63573	834.33753	749.46361	-447.81080	889.48027	623.63371	-427.91077	733.89330	708.05787	-412.07917	793.15207	580.08652	-401.76589	829.04584	930.84553	-113.35947	638.86081	958.74270	-195.83328	842.09589	931.39762	-366.02693	632.87169	969.75846	-296.93952	646.14798	1381.50627	-332.90129	758.07880	1388.35378	-157.53977	716.27702	1285.68298	-496.45042	786.44374	1340.11237	-309.63576	789.51431	1327.88309	-352.34713	775.54267	1285.61723	-54.99823	726.85510	1072.23659	-2.29655	752.23100	1116.69309	53.54409	880.91499	1051.90524	37.88540	987.55167	966.84862	26.96834	978.21950	955.69818	59.91003	738.99998	1164.12051	-532.81063	711.12986	936.82984	-448.98114	727.43060	951.92206	-525.18584	811.87988	871.98275	-520.35574	881.60449	729.63764	-515.29939	853.76733	719.57085	-534.44536	757.42753	847.03138	-142.83211	763.49123	854.15261	-349.07681	774.02692	840.91827	-154.38111	764.20956	858.97257	-320.10085	
69	0.68000000	890.05439	469.00672	-69.67701	880.06917	390.73432	-87.92162	569.08307	258.83156	-119.87709	509.00385	298.29303	-162.45695	571.78691	138.52809	-91.02721	627.40112	115.38146	-140.19641	898.00417	484.20563	-401.29493	926.10950	383.99223	-402.48692	805.95901	97.24953	-372.85454	734.29297	64.41422	-329.44452	908.21528	42.13284	-410.62625	948.61431	63.70481	-352.73521	771.99505	347.18226	-74.47272	843.34625	461.73858	-64.29305	741.85568	414.40016	-74.92334	839.94288	408.48707	-412.88801	816.99918	288.90655	-413.28480	849.40284	780.45396	-64.03968	883.90603	672.23615	-58.69392	830.44019	633.49033	-43.76112	740.12056	744.62777	-68.12219	778.65007	634.07393	-71.82012	843.47728	749.57918	-447.32285	896.46860	622.92888	-427.14488	742.33569	709.70705	-410.89450	799.63400	581.06809	-400.28593	839.10582	933.55978	-113.35547	649.45945	960.36320	-197.09729	853.63458	932.87319	-365.93756	643.88686	971.09811	-298.23558	657.69748	1383.11079	-334.50201	768.51054	1389.67316	-158.19433	729.10224	1286.55785	-497.33076	797.87626	1340.91353	-309.97765	801.20717	1328.54823	-352.74274	784.05641	1286.52093	-55.45754	733.85195	1073.12270	-4.50583	758.23953	1117.18493	52.04167	886.72665	1050.95933	39.12527	992.21927	964.42126	30.37724	982.49068	953.58998	63.35597	753.26270	1165.07878	-532.80268	728.68730	937.65308	-448.49446	745.58777	952.86651	-524.63502	830.81360	873.96025	-518.80448	901.38463	732.04921	-512.98517	874.25691	721.88460	-532.91963	767.93610	849.35997	-142.84554	775.17353	855.51747	-349.08474	784.87846	842.93487	-154.39305	775.74177	860.53342	-320.19881	
